PathFileType	4	(X/Y/Z)	D:\MotionData\Pi-Spi Study\20230118_AMCsubject1\Trimmed_right_abd_18001_rotated.trc
DataRate	CameraRate	NumFrames	NumMarkers	Units	OrigDataRate	OrigDataStartFrame	OrigNumFrames
200.00	200.00	       6	35	mm	200.00	76	       200
Frame#	Time	C7			Sternum			r_AMC1			r_AMC2			r_AMC3			l_AMC1			l_AMC2			l_AMC3			PX			T8			r_humerous			r_elbow_medial			r_elbow_lateral			r_forearm			r_wrist_radius			r_wrist_ulna			r_MCP_1			r_MCP_3			l_humerous			l_elbow_medial			l_elbow_lateral			l_forearm			l_wrist_radius			l_wrist_ulna			l_MCP_1			l_MCP_3			r_ASIS			r_PSIS			l_ASIS			l_PSIS			r_IC			l_IC			TS			AI			AA			
		X1	Y1	Z1	X2	Y2	Z2	X3	Y3	Z3	X4	Y4	Z4	X5	Y5	Z5	X6	Y6	Z6	X7	Y7	Z7	X8	Y8	Z8	X9	Y9	Z9	X10	Y10	Z10	X11	Y11	Z11	X12	Y12	Z12	X13	Y13	Z13	X14	Y14	Z14	X15	Y15	Z15	X16	Y16	Z16	X17	Y17	Z17	X18	Y18	Z18	X19	Y19	Z19	X20	Y20	Z20	X21	Y21	Z21	X22	Y22	Z22	X23	Y23	Z23	X24	Y24	Z24	X25	Y25	Z25	X26	Y26	Z26	X27	Y27	Z27	X28	Y28	Z28	X29	Y29	Z29	X30	Y30	Z30	X31	Y31	Z31	X32	Y32	Z32	X33	Y33	Z33	X34	Y34	Z34	X35	Y35	Z35	

76	0.375	192.0475	1374.366	-245.4966	328.4251	1322.2052	-223.0937	155.7768	1342.6589	-115.0795	184.9127	1378.4445	-97.1655	187.5738	1396.9564	-137.1682	220.3147	1322.91	-397.966	260.7262	1316.1941	-428.8094	282.258	1353.8516	-400.3934	389.742	1130.5403	-206.5994	157.8889	1191.0165	-244.081	264.685	1475.0425	-78.5332	352.5046	1556.1278	13.9488	295.4946	1579.1516	14.0109	335.302	1741.1963	27.8381	376.672	1807.4995	3.4821	364.9983	1800.8068	54.2402	396.5583	1889.0041	6.4337	389.3185	1883.1444	53.6617	343.5701	1126.3946	-424.8843	295.0561	993.1851	-379.8755	286.5304	987.0614	-432.043	320.8027	841.2464	-472.8038	334.6701	764.2159	-456.93	356.2902	774.4963	-492.499	349.5352	688.6281	-467.2436	363.5346	698.0169	-509.4337	351.4586	909.5601	-76.0116	168.7338	929.8886	-169.1525	367.494	892.8561	-335.1291	175.6406	922.8496	-271.7503	269.4342	972.1232	-53.1167	281.4034	941.0519	-378.4177	100.601	1295.2338	-158.3005	119.0659	1221.5302	-89.9574	135.8163	1389.9669	-54.3987
77	0.38	192.0637	1374.3689	-245.524	328.4406	1322.2079	-223.1146	155.8098	1342.6583	-115.1352	184.931	1378.4271	-97.1688	187.5928	1396.954	-137.1811	220.2817	1322.9463	-397.9845	260.7396	1316.2158	-428.8361	282.2462	1353.865	-400.3952	389.7921	1130.5832	-206.6573	157.8881	1190.9994	-244.0911	264.7257	1475.0342	-78.5484	352.5283	1556.1473	13.9398	295.5029	1579.1779	13.9466	335.3114	1741.1788	27.8367	376.6594	1807.4904	3.4759	365.0279	1800.8221	54.2453	396.5476	1888.9994	6.4189	389.3096	1883.1312	53.6701	343.5476	1126.4225	-424.8564	295.1131	993.1992	-379.9047	286.5785	987.0731	-432.0541	320.9101	841.2441	-472.813	334.7815	764.2326	-456.9293	356.3689	774.5326	-492.5267	349.6559	688.6281	-467.248	363.6261	698.0302	-509.4757	351.4346	909.5779	-75.9981	168.7443	929.8827	-169.179	367.5211	892.8785	-335.1148	175.6471	922.8451	-271.7918	269.4189	972.1218	-53.1558	281.4853	940.9724	-378.4466	100.6265	1295.2218	-158.3042	119.1101	1221.5415	-89.9983	135.8017	1389.9377	-54.4221
78	0.385	192.0682	1374.3595	-245.5316	328.4585	1322.226	-223.141	155.8377	1342.655	-115.1372	184.9667	1378.4219	-97.1728	187.6256	1396.9592	-137.1796	220.3207	1322.9216	-398.0236	260.7318	1316.2209	-428.8383	282.2679	1353.8839	-400.426	389.7805	1130.5914	-206.6843	157.9202	1191.0028	-244.1068	264.7712	1475.0348	-78.5527	352.5512	1556.1363	13.9145	295.5346	1579.0984	13.9878	335.3302	1741.1821	27.8553	376.6495	1807.5071	3.4912	365.0254	1800.8224	54.2441	396.5213	1889.0115	6.402	389.2987	1883.124	53.6668	343.6527	1126.4163	-424.9184	295.1707	993.2257	-379.9298	286.5801	987.0917	-432.0957	320.9472	841.2569	-472.8467	334.8641	764.2403	-456.9604	356.4605	774.5367	-492.5524	349.0706	688.9872	-467.6658	363.7066	698.0485	-509.5113	351.4461	909.5751	-75.9931	168.7418	929.8787	-169.2167	367.5567	892.8627	-335.0992	175.6618	922.8369	-271.8333	269.3905	972.1207	-53.1449	281.4795	940.996	-378.4141	100.6394	1295.2217	-158.2905	119.1193	1221.525	-89.9544	135.8349	1389.9348	-54.403
79	0.39	192.0919	1374.3677	-245.5496	328.4518	1322.2322	-223.1538	155.8878	1342.6446	-115.1057	184.9943	1378.4237	-97.1902	187.6452	1396.9515	-137.1868	220.3019	1322.9089	-398.0552	260.7291	1316.2208	-428.8695	282.2731	1353.8763	-400.4584	389.8472	1130.6521	-206.7182	157.9367	1190.9698	-244.1341	264.717	1475.0311	-78.5356	352.5994	1556.1361	13.8924	295.5423	1579.1403	13.9689	335.3263	1741.1735	27.8511	376.6227	1807.5027	3.4889	365.0453	1800.8196	54.2374	396.5119	1888.9929	6.4048	389.2749	1883.1185	53.6603	343.6935	1126.4379	-424.9568	295.2041	993.1859	-379.9503	286.6127	987.0728	-432.1134	321.0447	841.2657	-472.8721	334.9591	764.2186	-456.9811	356.5396	774.5687	-492.5711	349.2146	688.9887	-467.686	363.8716	698.0757	-509.5207	351.4145	909.579	-75.9921	168.7399	929.8726	-169.2375	367.523	892.8748	-335.1194	175.6662	922.8345	-271.8643	269.3748	972.141	-53.1881	281.471	940.9935	-378.1826	100.6823	1295.2048	-158.3236	119.1284	1221.4992	-89.9989	135.8613	1389.9038	-54.4298
80	0.395	192.1131	1374.3579	-245.5564	328.4694	1322.229	-223.1774	155.8843	1342.6245	-115.1195	185.0187	1378.4176	-97.1937	187.6756	1396.9324	-137.1963	220.3257	1322.9357	-398.0661	260.7407	1316.2299	-428.8866	282.2484	1353.8778	-400.4738	389.8303	1130.6504	-206.7122	157.9339	1190.9813	-244.1489	264.7737	1475.0273	-78.5493	352.5907	1556.1359	13.9077	295.5802	1579.0791	14.0172	335.3291	1741.1608	27.8362	376.623	1807.4932	3.4733	365.0396	1800.8113	54.231	396.4938	1889.0031	6.3944	389.2844	1883.1246	53.6484	343.6191	1126.5008	-424.9854	295.2381	993.1988	-379.9689	286.7215	987.0706	-432.11	321.1025	841.2911	-472.8771	335.0735	764.2521	-456.9919	356.6281	774.5861	-492.5938	349.3174	689.0505	-467.7523	363.9684	698.1132	-509.5819	351.4189	909.584	-76.0066	168.7491	929.8735	-169.2919	367.5787	892.8546	-335.1431	175.6873	922.8383	-271.8834	269.3788	972.1348	-53.2245	281.3493	941.1286	-378.4818	100.6977	1295.2019	-158.3249	119.1474	1221.4629	-90.0096	135.8966	1389.8917	-54.4061
81	0.4	192.1112	1374.3663	-245.556	328.5033	1322.2357	-223.1917	155.9231	1342.6179	-115.1458	185.08	1378.434	-97.1571	187.7044	1396.9309	-137.2053	220.3159	1322.9427	-398.1135	260.7425	1316.2412	-428.9052	282.2741	1353.9087	-400.498	389.8834	1130.6582	-206.7803	157.9414	1190.9811	-244.1748	264.7866	1475.0277	-78.5721	352.608	1556.1312	13.9003	295.5808	1579.118	14.002	335.3306	1741.1742	27.8361	376.6165	1807.4952	3.4675	365.0366	1800.8048	54.2203	396.4869	1889.002	6.3949	389.2889	1883.1152	53.6289	343.7545	1126.4922	-425.0061	295.3065	993.2277	-380.0084	286.716	987.1002	-432.1745	321.1697	841.2962	-472.9326	335.1607	764.2812	-457.0384	356.7174	774.6218	-492.6202	349.467	689.0657	-467.7683	364.0922	698.1287	-509.6057	351.4112	909.5883	-76.0043	168.7787	929.8704	-169.2955	367.5703	892.858	-335.1407	175.698	922.8321	-271.8946	269.3161	972.1885	-53.2177	281.4914	940.9994	-378.412	100.7341	1295.2157	-158.3366	119.1418	1221.46	-89.9691	135.9453	1389.8517	-54.4355
